<?xml version="1.0" standalone="no"?>
<!DOCTYPE svg PUBLIC "-//W3C//DTD SVG 20010904//EN"
 "http://www.w3.org/TR/2001/REC-SVG-20010904/DTD/svg10.dtd">
<svg version="1.0" xmlns="http://www.w3.org/2000/svg"
 width="310.000000pt" height="310.000000pt" viewBox="0 0 310.000000 310.000000"
 preserveAspectRatio="xMidYMid meet">
<metadata>
Created by potrace 1.14, written by Peter Selinger 2001-2017
</metadata>
<g transform="translate(0.000000,310.000000) scale(0.100000,-0.100000)"
fill="#000000" stroke="none">
<path d="M1468 2241 c-3 -64 4 -69 26 -16 17 41 15 69 -7 73 -12 2 -16 -9 -19
-57z"/>
<path d="M1330 2276 c-9 -12 -6 -20 19 -43 46 -42 55 -127 25 -238 -8 -33 -18
-70 -20 -82 -2 -12 -9 -34 -14 -48 -6 -15 -10 -36 -9 -48 0 -21 1 -21 11 3 14
31 13 29 22 65 30 121 80 206 133 226 36 14 40 12 78 -27 58 -60 101 -23 63
53 -10 19 -36 36 -60 38 -12 0 -21 15 -10 15 7 0 12 5 12 10 0 25 -21 11 -117
-78 -27 -24 -38 -30 -44 -20 -4 7 -4 17 0 23 6 9 7 35 2 98 -1 22 -45 67 -64
67 -8 0 -20 -7 -27 -14z"/>
<path d="M1282 2199 c-31 -12 -21 -26 17 -23 17 1 31 -2 31 -8 0 -5 5 -6 10
-3 29 18 -22 47 -58 34z"/>
<path d="M1110 1783 c-74 -15 -93 -23 -171 -75 -105 -70 -139 -116 -164 -228
-1 -3 -4 -18 -8 -35 -11 -47 -29 -170 -31 -210 -2 -44 50 -86 142 -115 23 -7
42 -16 42 -20 0 -4 11 -5 25 -3 19 4 35 -6 80 -50 30 -31 59 -67 65 -81 10
-27 64 -59 139 -82 29 -9 93 -14 171 -14 104 0 140 4 211 25 177 51 324 157
422 305 21 30 37 60 37 67 0 7 5 13 12 13 6 0 9 3 5 6 -3 3 5 30 18 60 13 30
21 54 17 54 -3 0 -2 4 4 10 5 5 28 12 50 15 90 11 185 81 228 168 23 45 34 97
22 97 -3 0 -16 -4 -31 -10 -34 -13 -69 -20 -129 -26 -26 -2 -71 -15 -98 -28
l-49 -23 -28 26 c-15 14 -62 43 -103 64 -41 20 -83 46 -94 58 l-19 21 -11 -27
c-13 -33 -1 -112 26 -165 20 -40 61 -86 100 -114 l25 -17 -32 -27 c-44 -38
-117 -62 -181 -61 -45 1 -55 5 -72 29 -11 16 -20 31 -20 35 0 17 -82 168 -114
210 -20 26 -36 44 -36 40 0 -3 -10 4 -22 16 -29 28 -140 79 -171 79 -13 0 -27
3 -31 7 -18 18 -149 22 -226 6z"/>
</g>
</svg>
